<?xml version="1.0" encoding="UTF-8"?>
<svg width="30px" height="30px" viewBox="0 0 30 30" version="1.1" xmlns="http://www.w3.org/2000/svg" xmlns:xlink="http://www.w3.org/1999/xlink">
    <title>AWSM Audit Log</title>
    <g id="AWSM-Audit-Log" stroke="none" stroke-width="1" fill="none" fill-rule="evenodd">
        <g id="Group-7" transform="translate(7.000000, 9.000000)" fill="#00A19C">
            <path d="M7.91676667,2.87336667 C6.2041,2.87336667 4.8111,4.2667 4.8111,5.97903333 C4.8111,7.6917 6.2041,9.08503333 7.91676667,9.08503333 C9.6291,9.08503333 11.0221,7.6917 11.0221,5.97903333 C11.0221,4.2667 9.6291,2.87336667 7.91676667,2.87336667 M7.91676667,7.99503333 C6.8051,7.99503333 5.90043333,7.0907 5.90043333,5.97903333 C5.90043333,4.86736667 6.8051,3.96336667 7.91676667,3.96336667 C9.02843333,3.96336667 9.93276667,4.86736667 9.93276667,5.97903333 C9.93276667,7.0907 9.02843333,7.99503333 7.91676667,7.99503333" id="Fill-1"></path>
            <path d="M7.93076667,11.9583333 C6.31876667,11.9583333 4.72276667,11.3796667 3.18743333,10.2386667 C1.66743333,9.109 0.7301,7.812 0.397766667,7.30633333 C-0.132566667,6.5 -0.132566667,5.458 0.397766667,4.652 C0.7301,4.14633333 1.66743333,2.84933333 3.18743333,1.71966667 C4.72276667,0.578666667 6.31876667,0 7.93076667,0 C9.54476667,0 11.1391,0.58 12.6697667,1.72433333 C14.1834333,2.856 15.1127667,4.15466667 15.4417667,4.66033333 C15.9637667,5.46166667 15.9637667,6.49666667 15.4417667,7.298 C15.3414333,7.452 15.1717667,7.544 14.9874333,7.544 C14.8827667,7.544 14.7811,7.51366667 14.6927667,7.45633333 C14.4424333,7.29333333 14.3714333,6.957 14.5344333,6.70666667 C14.8221,6.265 14.8221,5.69366667 14.5344333,5.25166667 C13.5257667,3.70333333 11.0007667,1.08333333 7.93076667,1.08333333 C4.86043333,1.08333333 2.31976667,3.701 1.30243333,5.24733333 C1.0101,5.692 1.0101,6.26633333 1.30243333,6.711 C2.31976667,8.25733333 4.86043333,10.875 7.93076667,10.875 C10.0597667,10.875 11.8147667,9.647 12.9121,8.61733333 C13.0131,8.52233333 13.1447667,8.47033333 13.2831,8.47033333 C13.4341,8.47033333 13.5744333,8.531 13.6777667,8.64133333 C13.7771,8.747 13.8287667,8.88466667 13.8244333,9.02933333 C13.8197667,9.17366667 13.7591,9.308 13.6537667,9.407 C12.4131,10.571 10.4134333,11.9583333 7.93076667,11.9583333" id="Fill-3"></path>
            <path d="M8.5971,5.97916667 C8.5971,6.35516667 8.29243333,6.65983333 7.91676667,6.65983333 C7.54076667,6.65983333 7.2361,6.35516667 7.2361,5.97916667 C7.2361,5.60316667 7.54076667,5.2985 7.91676667,5.2985 C8.29243333,5.2985 8.5971,5.60316667 8.5971,5.97916667" id="Fill-5"></path>
        </g>
    </g>
</svg>