<?xml version="1.0" encoding="UTF-8"?>
<svg width="19px" height="19px" viewBox="0 0 27 27" version="1.1"
    xmlns="http://www.w3.org/2000/svg"
    xmlns:xlink="http://www.w3.org/1999/xlink">
    <title>AWSM Customise Table</title>
    <g id="AWSM-Customise-Table-Bank" stroke="none" stroke-width="1" fill="none" fill-rule="evenodd">
        <g id="Table-Setting" transform="translate(4.000000, 5.000000)">
            <g id="Group-2">
                <rect id="Rectangle" stroke="#999999" x="6.21428571" y="0.5" width="6.61904762" height="16.1428571"></rect>
                <rect id="Rectangle-Copy" stroke="#999999" x="0.5" y="0.5" width="5.66666667" height="16.1428571"></rect>
                <rect id="Rectangle-Copy-2" stroke="#999999" x="12.8809524" y="0.5" width="5.66666667" height="16.1428571"></rect>
                <g id="settings-2" transform="translate(8.571429, 5.714286)" fill="#999999" fill-rule="nonzero">
                    <path d="M14.0384148,8.70834263 L12.6899842,7.68155692 C12.70709,7.52321429 12.7217602,7.33811384 12.7217602,7.14227121 C12.7217602,6.94642857 12.7076917,6.76132813 12.6899842,6.60298549 L14.0396469,5.57561384 C14.2902731,5.3827567 14.3587247,5.04048549 14.1991858,4.75538504 L12.7969452,2.39285714 C12.6471769,2.12619978 12.3189302,1.98928571 11.9858124,2.10892857 L10.3946925,2.73094308 C10.0896832,2.51665737 9.76997494,2.33571429 9.4392927,2.19107143 L9.19723364,0.547628348 C9.15749218,0.235714286 8.8787575,0 8.54930733,0 L5.73751976,0 C5.40804094,0 5.12993663,0.235714286 5.09079687,0.542857143 L4.8481361,2.19227121 C4.52782618,2.3327567 4.21304626,2.51132813 3.89457012,2.73214286 L2.29918088,2.10834263 C2.00024597,1.99584263 1.64265873,2.12201451 1.49412249,2.3875 L0.090076805,4.75298549 C-0.0755651705,5.02561384 -0.00711357397,5.37977121 0.24901402,5.57739955 L1.59744457,6.60418527 C1.57604091,6.80477121 1.56566859,6.97918527 1.56566859,7.14288504 C1.56566859,7.30658482 1.57606956,7.48097098 1.59744457,7.68217076 L0.247781948,8.70954241 C-0.0028443032,8.90298549 -0.0706941904,9.2452567 0.0888447335,9.52977121 L1.49108529,11.8922712 C1.6408536,12.1583426 1.9660345,12.2964286 2.30221808,12.1761998 L3.89333805,11.5541853 C4.19774565,11.767885 4.51742521,11.9488281 4.8481361,12.0940569 L5.09019516,13.7369141 C5.12990797,14.05 5.40804094,14.2857143 5.73812147,14.2857143 L8.54990904,14.2857143 C8.87938787,14.2857143 9.15812254,14.05 9.19723364,13.7428571 L9.43989441,12.0940569 C9.76020433,11.9529855 10.0743825,11.775 10.3934604,11.5535714 L11.9888496,12.1773717 C12.0658684,12.206529 12.1459531,12.2214286 12.2284732,12.2214286 C12.4656326,12.2214286 12.6838525,12.0952288 12.7938794,11.8988002 L14.202223,9.52380022 C14.3587247,9.24522879 14.2902445,8.90298549 14.0384148,8.70834263 Z M7.14339922,9.52380022 C5.79496867,9.52380022 4.69836779,8.45594308 4.69836779,7.14285714 C4.69836779,5.82977121 5.79496867,4.76191406 7.14339922,4.76191406 C8.49182977,4.76191406 9.58843065,5.82977121 9.58843065,7.14285714 C9.58843065,8.45594308 8.49182977,9.52380022 7.14339922,9.52380022 Z" id="Shape"></path>
                </g>
            </g>
        </g>
    </g>
</svg>