<?xml version="1.0" encoding="UTF-8"?>
<svg width="45px" height="48px" viewBox="0 0 40 40" version="1.1" xmlns="http://www.w3.org/2000/svg" xmlns:xlink="http://www.w3.org/1999/xlink">
    <title>Artboard Copy</title>
    <g id="Artboard-Copy" stroke="none" stroke-width="1" fill="none" fill-rule="evenodd">
        <path d="M10.016058,1 C11.8509308,1 13.6634456,1.65937189 15.4035811,2.96030505 C17.1243901,4.24683814 18.180901,5.72322486 18.554924,6.29809104 C19.1483587,7.20908531 19.1483587,8.38572308 18.554924,9.29671735 C18.4408602,9.47179196 18.247975,9.57638198 18.038416,9.57638198 C17.9194259,9.57638198 17.8038463,9.54189759 17.7034248,9.4767183 C17.4188338,9.29141206 17.3381176,8.90905215 17.5234238,8.62446118 C17.8504571,8.12235328 17.8504571,7.47283407 17.5234238,6.97034721 C16.376723,5.21012742 13.5061816,2.23158543 10.016058,2.23158543 C6.5255554,2.23158543 3.63720335,5.20747478 2.4806499,6.96542087 C2.14831131,7.47093932 2.14831131,8.12386907 2.4806499,8.62938752 C3.63720335,10.3873336 6.5255554,13.363223 10.016058,13.363223 C12.4364076,13.363223 14.431576,11.9671735 15.6790773,10.7965989 C15.7938989,10.6885984 15.9435839,10.6294823 16.1008479,10.6294823 C16.272512,10.6294823 16.4320496,10.698451 16.5495239,10.8238833 C16.6624509,10.9440102 16.721188,11.1005163 16.7162617,11.2649803 C16.7109564,11.4290654 16.6419876,11.581782 16.5222396,11.69433 C15.1117901,13.0176211 12.8384728,14.5948084 10.016058,14.5948084 C8.18345886,14.5948084 6.36904931,13.9369523 4.62360855,12.6398086 C2.89559945,11.3555492 1.82999384,9.88105727 1.45218133,9.30619109 C0.849272891,8.38951258 0.849272891,7.20491687 1.45218133,6.28861731 C1.82999384,5.71375113 2.89559945,4.23925915 4.62360855,2.95499976 C6.36904931,1.65785609 8.18345886,1 10.016058,1 Z M10.0001421,4.2665814 C11.946805,4.2665814 13.5304344,5.85058974 13.5304344,7.79725262 C13.5304344,9.74429444 11.946805,11.3283028 10.0001421,11.3283028 C8.05310028,11.3283028 6.46947089,9.74429444 6.46947089,7.79725262 C6.46947089,5.85058974 8.05310028,4.2665814 10.0001421,4.2665814 Z M10.0001421,5.50574582 C8.73634598,5.50574582 7.70787741,6.53345649 7.70787741,7.79725262 C7.70787741,9.06104874 8.73634598,10.0891384 10.0001421,10.0891384 C11.2639382,10.0891384 12.2920279,9.06104874 12.2920279,7.79725262 C12.2920279,6.53345649 11.2639382,5.50574582 10.0001421,5.50574582 Z M10.0001421,7.0235896 C10.427218,7.0235896 10.7735778,7.36994932 10.7735778,7.7974042 C10.7735778,8.22485908 10.427218,8.5712188 10.0001421,8.5712188 C9.57268722,8.5712188 9.22632751,8.22485908 9.22632751,7.7974042 C9.22632751,7.36994932 9.57268722,7.0235896 10.0001421,7.0235896 Z" id="Icon-View" fill="#9EA0A5"></path>
    </g>
</svg>