<?xml version="1.0" encoding="UTF-8"?>
<svg width="19px" height="20px" viewBox="0 0 19 20" version="1.1"
    xmlns="http://www.w3.org/2000/svg"
    xmlns:xlink="http://www.w3.org/1999/xlink">
    <title>Artboard</title>
    <g id="Artboard" stroke="none" stroke-width="1" fill="none" fill-rule="evenodd">
        <g id="down-arrow-copy" transform="translate(1.000000, 1.000000)" fill="#9EA0A5" fill-rule="nonzero" stroke="#9EA0A5" stroke-width="0.2">
            <path d="M14.1538448,0.957532771 L12.1437988,0.957532771 C11.8039188,0.957532771 11.5284017,1.2330498 11.5284017,1.57292987 C11.5284017,1.91280993 11.8039188,2.18832696 12.1437988,2.18832696 L14.1538448,2.18832696 C14.4937248,2.18832696 14.7692419,2.463844 14.7692419,2.80372406 L14.7692419,13.2013149 C14.7692419,13.541195 14.4937248,13.816712 14.1538448,13.816712 L1.84615523,13.816712 C1.50627517,13.816712 1.23075814,13.541195 1.23075814,13.2013149 L1.23075814,2.803688 C1.23075814,2.46380794 1.50627517,2.18829091 1.84615523,2.18829091 L3.69981047,2.18829091 C4.03969053,2.18829091 4.31520757,1.91277387 4.31520757,1.57289381 C4.31520757,1.23301375 4.03969053,0.957532771 3.69981047,0.957532771 L1.84615523,0.957532771 C0.826551102,0.957532771 0,1.78408387 0,2.803688 L0,13.2012788 C0,14.220883 0.826551102,15.0474341 1.84615523,15.0474341 L14.1538448,15.0474341 C15.1734489,15.0474341 16,14.220883 16,13.2012788 L16,2.803688 C16,1.78408387 15.1734489,0.957532771 14.1538448,0.957532771 Z" id="Path"></path>
            <path d="M11.4980856,7.67223939 C11.2595998,7.44193874 10.8815346,7.44193874 10.6430849,7.67223939 L8.61537907,9.69868322 L8.61537907,0.615397097 C8.61537907,0.275517034 8.33986203,-1.47792889e-12 7.99998197,-1.47792889e-12 C7.66010191,-1.47792889e-12 7.38458487,0.275517034 7.38458487,0.615397097 L7.38458487,9.69871928 L5.35810499,7.67223939 C5.11363365,7.43613344 4.72406605,7.44287624 4.4879601,7.68734757 C4.25762339,7.92583333 4.25762339,8.30393458 4.4879601,8.54238427 L7.56487347,11.6192976 C7.80490971,11.8599108 8.19454942,11.8604156 8.43516259,11.6203794 L11.5131937,8.54238427 C11.7493357,8.29791294 11.7425569,7.90834534 11.4980856,7.67223939 Z" id="Path" transform="translate(8.000585, 5.900041) rotate(-180.000000) translate(-8.000585, -5.900041) "></path>
        </g>
    </g>
</svg>