<?xml version="1.0" encoding="UTF-8"?>
<svg width="24px" height="25px" viewBox="0 0 24 25" version="1.1" xmlns="http://www.w3.org/2000/svg" xmlns:xlink="http://www.w3.org/1999/xlink">
    <title>Search Icon</title>
    <g id="Search-Icon" stroke="none" stroke-width="1" fill="none" fill-rule="evenodd">
        <g id="magnifying-glass-(1)" transform="translate(5.000000, 5.000000)" fill="#B9B9B9" fill-rule="nonzero">
            <path d="M10.3972698,9.0366537 C11.0944627,8.09586174 11.5114868,6.94027213 11.5114868,5.68752122 C11.5114868,2.5515299 8.92934494,0 5.75572964,0 C2.58211435,0 0,2.5515299 0,5.68752122 C0,8.82351253 2.58214183,11.3750424 5.75575712,11.3750424 C7.02353789,11.3750424 8.19310158,10.9629079 9.14518068,10.2739805 L12.915903,14 L14.1680471,12.7627004 C14.1680471,12.7626732 10.3972698,9.0366537 10.3972698,9.0366537 L10.3972698,9.0366537 Z M5.75575712,9.62502546 C3.55843168,9.62502546 1.77101276,7.85879683 1.77101276,5.68752122 C1.77101276,3.5162456 3.55843168,1.75001697 5.75575712,1.75001697 C7.95308257,1.75001697 9.74050148,3.5162456 9.74050148,5.68752122 C9.74050148,7.85879683 7.95305509,9.62502546 5.75575712,9.62502546 Z" id="Shape"></path>
        </g>
    </g>
</svg>