<?xml version="1.0" encoding="UTF-8"?>
<svg width="18px" height="19px" viewBox="0 0 18 19" version="1.1" xmlns="http://www.w3.org/2000/svg" xmlns:xlink="http://www.w3.org/1999/xlink">
    <title>Artboard</title>
    <g id="Artboard" stroke="none" stroke-width="1" fill="none" fill-rule="evenodd">
        <g id="Group-24-Copy" transform="translate(3.000000, 3.000000)" fill="#999999">
            <path d="M0.607627841,12.1681676 C0.918166635,12.4908648 1.43150586,12.5007212 1.75420309,12.1901824 C1.75777149,12.1867485 1.76130836,12.1832819 1.76481325,12.1797831 L11.0565696,2.90430398 L11.0565696,2.90430398 L11.0565696,4.37445313 C11.0565696,4.84087093 11.4346759,5.21897727 11.9010937,5.21897727 C12.3675116,5.21897727 12.7456179,4.84087093 12.7456179,4.37445312 L12.7456179,-7.23461695e-16 L12.7456179,-7.23461695e-16 L8.37727983,-7.23461695e-16 C7.91649078,4.23493884e-16 7.54294744,0.373543333 7.54294744,0.834332386 C7.54294744,1.29512144 7.91649078,1.66866477 8.37727983,1.66866477 L9.90872869,1.66866477 L9.90872869,1.66866477 L0.618041424,10.9881685 C0.294070713,11.3131441 0.289443011,11.837525 0.607627841,12.1681676 Z" id="Path-7"></path>
            <path d="M0.59949929,0.846400923 C0.268377035,1.18005633 0.27035283,1.71894145 0.603912811,2.05015984 L4.12527699,5.54680398 L4.12527699,5.54680398 L5.27053267,4.34700994 L1.79834973,0.846547897 C1.46993086,0.51545422 0.935290297,0.513285867 0.604196621,0.841704744 C0.602624693,0.843263973 0.601058904,0.844829378 0.59949929,0.846400923 Z" id="Path-8"></path>
            <path d="M7.19871449,8.67062855 L8.41725142,7.45917614 L11.0667116,10.1381676 L11.0667116,8.58638494 C11.0667116,8.12276778 11.4425476,7.74693182 11.9061648,7.74693182 C12.3697819,7.74693182 12.7456179,8.12276778 12.7456179,8.58638494 L12.7456179,12.9857955 L12.7456179,12.9857955 L8.37583807,12.9857955 C7.91392326,12.9857955 7.53946733,12.6113395 7.53946733,12.1494247 C7.53946733,11.6875099 7.91392326,11.313054 8.37583807,11.313054 L9.84638494,11.313054 L9.84638494,11.313054 L7.19871449,8.67062855 Z" id="Path-9"></path>
        </g>
    </g>
</svg>