<?xml version="1.0" encoding="UTF-8"?>
<svg width="42px" height="45px" viewBox="0 0 42 45" version="1.1" xmlns="http://www.w3.org/2000/svg" xmlns:xlink="http://www.w3.org/1999/xlink">
    <title>AWSM Upload (Green)</title>
    <g id="AWSM-Upload-(Green)" stroke="none" stroke-width="1" fill="none" fill-rule="evenodd">
        <g id="upload" fill="#00A19C" fill-rule="nonzero">
            <path d="M37.1538425,14.0364109 L29.0769449,14.0364109 C28.1847598,14.0364109 27.4615275,14.768888 27.4615275,15.6723594 C27.4615275,16.5758308 28.1847598,17.308212 29.0769449,17.308212 L37.1538425,17.308212 C38.0460277,17.308212 38.7692599,18.0405931 38.7692599,18.9440646 L38.7692599,40.2097649 C38.7692599,41.1132363 38.0460277,41.8456175 37.1538425,41.8456175 L4.84615749,41.8456175 C3.95397232,41.8456175 3.23074011,41.1132363 3.23074011,40.2097649 L3.23074011,18.9439687 C3.23074011,18.0404973 3.95397232,17.3081161 4.84615749,17.3081161 L12.9230551,17.3081161 C13.8152402,17.3081161 14.5384725,16.5757349 14.5384725,15.6722635 C14.5384725,14.7687921 13.8152402,14.0364109 12.9230551,14.0364109 L4.84615749,14.0364109 C2.16969664,14.0364109 0,16.2335545 0,18.9438729 L0,40.2095732 C0,42.9198916 2.16969664,45.1170351 4.84615749,45.1170351 L37.1538425,45.1170351 C39.8303034,45.1170351 42,42.9198916 42,40.2095732 L42,18.9439687 C42,16.2336503 39.8303034,14.0364109 37.1538425,14.0364109 Z" id="Path"></path>
            <path d="M29.5545877,8.59162868 L21.6217163,0.475306073 C21.0022062,-0.158435358 19.9978264,-0.158435358 19.3783163,0.475306073 L11.4453519,8.59162868 C10.8366256,9.23649839 10.8541028,10.2641049 11.4843967,10.8869083 C12.0992586,11.4944935 13.073983,11.4944935 13.6888449,10.8869083 L18.9134978,5.54143298 L18.9134978,32.465124 C18.9134978,33.3616641 19.6238334,34.0884265 20.5001092,34.0884265 C21.3763851,34.0884265 22.0867207,33.3616641 22.0867207,32.465124 L22.0867207,5.54152809 L27.3113736,10.8870034 C27.9416675,11.5098068 28.9460473,11.4919255 29.5547736,10.8470557 C30.1484398,10.2179749 30.1484398,9.22070954 29.5545877,8.59162868 Z" id="Path"></path>
        </g>
    </g>
</svg>