<?xml version="1.0" encoding="UTF-8"?>
<svg width="18px" height="18px" viewBox="0 0 18 18" version="1.1" xmlns="http://www.w3.org/2000/svg" xmlns:xlink="http://www.w3.org/1999/xlink">
    <title>Artboard</title>
    <g id="Artboard" stroke="none" stroke-width="1" fill="none" fill-rule="evenodd">
        <path d="M15,16.0000168 C14.734197,16.0015368 14.4787189,15.8971865 14.29,15.71 L2.28999997,3.70999998 C1.89787781,3.3178778 1.89787781,2.68212215 2.28999998,2.28999998 C2.68212215,1.89787781 3.3178778,1.89787781 3.70999998,2.28999997 L15.71,14.29 C15.8993127,14.4777666 16.0057984,14.7333625 16.0057984,15 C16.0057984,15.2666376 15.8993127,15.5222334 15.71,15.71 C15.5212812,15.8971865 15.265803,16.0015368 15,16.0000168 Z" id="Path" fill="#9E9E9E" fill-rule="nonzero"></path>
        <path d="M15,16.0000168 C14.734197,16.0015368 14.4787189,15.8971865 14.29,15.71 L2.28999997,3.70999998 C1.89787781,3.3178778 1.89787781,2.68212215 2.28999998,2.28999998 C2.68212215,1.89787781 3.3178778,1.89787781 3.70999998,2.28999997 L15.71,14.29 C15.8993127,14.4777666 16.0057984,14.7333625 16.0057984,15 C16.0057984,15.2666376 15.8993127,15.5222334 15.71,15.71 C15.5212812,15.8971865 15.265803,16.0015368 15,16.0000168 Z" id="Path" fill="#9E9E9E" fill-rule="nonzero" transform="translate(9.000853, 8.997963) rotate(-270.000000) translate(-9.000853, -8.997963) "></path>
    </g>
</svg>