<?xml version="1.0" encoding="UTF-8"?>
<svg width="30px" height="40px" viewBox="0 0 27 40" version="1.1" xmlns="http://www.w3.org/2000/svg" xmlns:xlink="http://www.w3.org/1999/xlink">
    <g id="Page-1" stroke="none" stroke-width="1" fill="#9EA0A5" fill-rule="evenodd">
        <g id="AWSM-Calendar" transform="translate(-3.000000, -1.000000)" fill="#9EA0A5" fill-rule="nonzero" stroke="none" stroke-width="0.2">
            <path d="M13.1812119,2.00005372 C13.6243261,1.99648647 14.0504799,2.17070234 14.3641672,2.48356637 C14.6778546,2.79659505 14.8530584,3.22209013 14.8505885,3.6652044 L14.8505885,3.6652044 L14.8505885,4.19213329 L17.0088562,4.19213329 C17.8176921,4.19229795 18.5008884,4.79217357 18.6056154,5.59409345 C18.7101779,6.39617803 18.2036675,7.15133302 17.4220015,7.35881127 L17.4220015,7.35881127 L17.4220015,17.7447443 C17.4220015,18.3586165 17.196904,18.9351096 16.8036833,19.3487488 C16.4124386,19.7635407 15.8677259,19.999012 15.29749,20 L15.29749,20 L7.3217626,20 C6.75169143,19.999012 6.20697865,19.7635407 5.81556929,19.3487488 C5.42234861,18.9351096 5.19725121,18.3586165 5.19725121,17.7447443 L5.19725121,17.7447443 L5.19725121,7.35881127 C4.41558512,7.15133302 3.90907472,6.39617803 4.01363714,5.59409345 C4.1183643,4.79217357 4.80156053,4.19229795 5.61039638,4.19213329 L5.61039638,4.19213329 L7.76866419,4.19213329 L7.76866419,3.6652044 C7.7661942,3.22209013 7.94139806,2.79659505 8.2550854,2.48356637 C8.56877275,2.17070234 8.99492649,1.99648647 9.43804076,2.00005372 L9.43804076,2.00005372 Z M16.5789152,7.39586095 L6.04033743,7.39586095 L6.04033743,17.7447443 C6.04033743,18.5377723 6.60102269,19.1569138 7.3217626,19.1569138 L7.3217626,19.1569138 L15.29749,19.1569138 C16.0182299,19.1569138 16.5789152,18.5377723 16.5789152,17.7447443 L16.5789152,17.7447443 L16.5789152,7.39586095 Z M13.7967307,8.52151279 C14.0295674,8.52151279 14.2182738,8.71021922 14.2182738,8.9430559 L14.2182738,8.9430559 L14.2182738,16.9102207 C14.2182738,17.1428927 14.0295674,17.3317638 13.7967307,17.3317638 C13.563894,17.3317638 13.3751876,17.1428927 13.3751876,16.9102207 L13.3751876,16.9102207 L13.3751876,8.9430559 C13.3751876,8.71021922 13.563894,8.52151279 13.7967307,8.52151279 Z M8.82252197,8.52151279 C9.05535865,8.52151279 9.24406508,8.71021922 9.24406508,8.9430559 L9.24406508,8.9430559 L9.24406508,16.9102207 C9.24406508,17.1428927 9.05535865,17.3317638 8.82252197,17.3317638 C8.58968525,17.3317638 8.40097886,17.1428927 8.40097886,16.9102207 L8.40097886,16.9102207 L8.40097886,8.9430559 C8.40097886,8.71021922 8.58968525,8.52151279 8.82252197,8.52151279 Z M11.3096263,8.52151279 C11.542463,8.52151279 11.7311694,8.71021922 11.7311694,8.9430559 L11.7311694,8.9430559 L11.7311694,16.9102207 C11.7311694,17.1428927 11.542463,17.3317638 11.3096263,17.3317638 C11.0767896,17.3317638 10.8880832,17.1428927 10.8880832,16.9102207 L10.8880832,16.9102207 L10.8880832,8.9430559 C10.8880832,8.71021922 11.0767896,8.52151279 11.3096263,8.52151279 Z M17.0088562,5.03521952 L5.61039638,5.03521952 C5.19132321,5.03521952 4.85161878,5.374924 4.85161878,5.79399712 C4.85161878,6.21307024 5.19132321,6.55277472 5.61039638,6.55277472 L5.61039638,6.55277472 L17.0088562,6.55277472 C17.4279294,6.55277472 17.7676338,6.21307024 17.7676338,5.79399712 C17.7676338,5.374924 17.4279294,5.03521952 17.0088562,5.03521952 L17.0088562,5.03521952 Z M13.1812119,2.84319533 L9.43804076,2.84319533 C9.21837726,2.83940802 9.00661773,2.92454 8.85100905,3.07949002 C8.69523568,3.23444004 8.60895107,3.4457056 8.61175042,3.6652044 L8.61175042,3.6652044 L8.61175042,4.19213329 L14.0075023,4.19213329 L14.0075023,3.6652044 C14.0103016,3.4457056 13.9240169,3.23427538 13.7682436,3.07949002 C13.6126349,2.92454 13.4008753,2.83940802 13.1812119,2.84319533 L13.1812119,2.84319533 Z" id="Combined-Shape"></path>
        </g>
    </g>
</svg>
