<?xml version="1.0" encoding="UTF-8"?>
<svg width="200px" height="105px" viewBox="0 0 200 105" version="1.1" xmlns="http://www.w3.org/2000/svg" xmlns:xlink="http://www.w3.org/1999/xlink">
    <title>Artboard</title>
    <g id="Artboard" stroke="none" stroke-width="1" fill="none" fill-rule="evenodd">
        <g id="No-Data">
            <path d="M191.616766,11.1797944 C196.246699,11.1797944 200,14.9973334 200,19.7065063 C200,24.4156792 196.246699,28.2332182 191.616766,28.2332182 L143.712575,28.2332182 C148.342507,28.2332182 152.095808,32.0507571 152.095808,36.75993 C152.095808,41.4691029 148.342507,45.2866419 143.712575,45.2866419 L170.05988,45.2866419 C174.689812,45.2866419 178.443114,49.1041808 178.443114,53.8133537 C178.443114,58.5225267 174.689812,62.3400656 170.05988,62.3400656 L157.875553,62.3400656 C152.037813,62.3400656 147.305389,66.1576045 147.305389,70.8667774 C147.305389,74.0062261 149.700599,76.8484634 154.491018,79.3934893 C159.12095,79.3934893 162.874251,83.2110282 162.874251,87.9202012 C162.874251,92.6293741 159.12095,96.446913 154.491018,96.446913 L55.0898204,96.446913 C50.4598883,96.446913 46.7065868,92.6293741 46.7065868,87.9202012 C46.7065868,83.2110282 50.4598883,79.3934893 55.0898204,79.3934893 L8.38323353,79.3934893 C3.7533015,79.3934893 0,75.5759504 0,70.8667774 C0,66.1576045 3.7533015,62.3400656 8.38323353,62.3400656 L56.2874251,62.3400656 C60.9173572,62.3400656 64.6706587,58.5225267 64.6706587,53.8133537 C64.6706587,49.1041808 60.9173572,45.2866419 56.2874251,45.2866419 L26.3473054,45.2866419 C21.7173734,45.2866419 17.9640719,41.4691029 17.9640719,36.75993 C17.9640719,32.0507571 21.7173734,28.2332182 26.3473054,28.2332182 L74.251497,28.2332182 C69.621565,28.2332182 65.8682635,24.4156792 65.8682635,19.7065063 C65.8682635,14.9973334 69.621565,11.1797944 74.251497,11.1797944 L191.616766,11.1797944 Z M191.616766,45.2866419 C196.246699,45.2866419 200,49.1041808 200,53.8133537 C200,58.5225267 196.246699,62.3400656 191.616766,62.3400656 C186.986834,62.3400656 183.233533,58.5225267 183.233533,53.8133537 C183.233533,49.1041808 186.986834,45.2866419 191.616766,45.2866419 Z" id="Background" fill="#FFFFFF"></path>
            <path d="M62.8061523,38.5977231 L62.8061523,7.5702552 C63.6961263,3.3862444 66.6013997,1.294239 71.5219727,1.294239 C76.4425456,1.294239 96.2596029,1.294239 130.973145,1.294239 C135.791048,1.39356663 138.2,4.08716636 138.2,9.3750382 C138.2,14.66291 138.2,28.0406861 138.2,49.5083664 L102.04834,49.5083664 C98.2127279,48.9888829 95.4962565,47.3910325 93.8989258,44.7148151 C91.5029297,40.700489 89.8237305,38.5977231 85.9990234,38.5977231 C83.4492187,38.5977231 75.7182617,38.5977231 62.8061523,38.5977231 Z" id="Path-3" fill="#FFFFFF"></path>
            <path d="M52.3603516,46.4237469 L52.3603516,96.446913 C53.0608724,101.146577 55.8753255,103.496409 60.8037109,103.496409 C65.7320964,103.496409 92.6308594,103.496409 141.5,103.496409 C146.446615,102.076069 148.919922,99.7262375 148.919922,96.446913 C148.919922,93.1675886 148.919922,80.2411624 148.919922,57.6676345 C148.610352,52.1930267 146.137044,49.4557228 141.5,49.4557228 C136.862956,49.4557228 123.243001,49.4557228 100.640137,49.4557228 C97.370931,49.0829131 94.9908854,47.1816167 93.5,43.7518337 C92.0091146,40.3220507 89.5087891,38.6040139 85.9990234,38.5977231 L59.6196289,38.5977231 C55.6870117,39.377445 53.2672526,41.3820421 52.3603516,44.6115144 C51.4534505,47.8409867 51.4534505,48.4450642 52.3603516,46.4237469 Z" id="Path-2" fill="#F9F9F9" fill-rule="nonzero"></path>
            <path d="M141.366279,48.1141807 C138.192447,48.1141807 124.651395,48.1141807 100.743126,48.1141807 C99.0071721,48.1141807 97.3957744,47.2366772 96.4329419,45.7663608 L93.6268674,41.4828782 C92.0219163,39.0328976 89.3364837,37.5700793 86.4429209,37.5700793 L63.8761163,37.5700793 L63.8761163,8.78675119 C63.8761163,5.87985958 66.3535156,2.49758556 70.0563488,2.49758556 C80.2261834,2.49758556 87.8535593,2.49758556 92.9384766,2.49758556 C101.384071,2.49758556 114.052462,2.49758556 130.943651,2.49758556 C135.097168,2.49758556 137.123884,5.87985958 137.123884,8.78675119 L137.123884,33.3581907 C137.123884,34.5430452 137.751652,34.7610693 138.361938,34.7610693 C138.972225,34.7610693 139.577372,34.5430452 139.577372,33.3581907 L139.577372,8.78675119 C139.577372,3.94161943 135.7044,-3.44951994e-13 130.943651,-3.44951994e-13 L70.0563488,-3.44951994e-13 C65.2956,-3.44951994e-13 61.4226279,3.94161943 61.4226279,8.78675119 L61.4226279,37.5700793 L59.6337209,37.5700793 C54.8729721,37.5700793 51,41.5116987 51,46.3568305 L51,95.9919774 C51,100.837109 54.8729721,104.778729 59.6337209,104.778729 L141.366279,104.778729 C146.127028,104.778729 150,100.837109 150,95.9919774 L150,56.9009319 C150,52.0558001 146.127028,48.1141807 141.366279,48.1141807 Z M147.546512,95.7975244 C147.546512,98.7044161 145.325195,102.08669 141.5,102.08669 L60.2514648,102.08669 C55.9975586,102.08669 53.4534884,98.7044161 53.4534884,95.7975244 L53.4534884,46.3568305 C53.4534884,43.4499389 55.7772256,40.0676648 58.6337209,40.0676648 L86.4429209,40.0676648 C88.1788744,40.0676648 89.7902721,40.9451684 90.7531047,42.4154848 L93.5591791,46.6989674 C95.1641302,49.1489479 97.8495628,50.6117663 100.743126,50.6117663 L141.5,50.6117663 C145.119141,50.6117663 147.546512,53.8133537 147.546512,57.705379 L147.546512,95.7975244 Z M138.2,37.6491443 C138.862742,37.6491443 139.4,38.1864026 139.4,38.8491443 L139.4,42.5518337 C139.4,43.2145754 138.862742,43.7518337 138.2,43.7518337 C137.537258,43.7518337 137,43.2145754 137,42.5518337 L137,38.8491443 C137,38.1864026 137.537258,37.6491443 138.2,37.6491443 Z M124.32907,27.8833699 L76.6709302,27.8833699 C75.717307,27.8833699 74.944186,28.5662608 74.944186,29.4090422 C74.944186,30.2518237 75.717307,30.9347146 76.6709302,30.9347146 L124.32907,30.9347146 C125.282693,30.9347146 126.055814,30.2518237 126.055814,29.4090422 C126.055814,28.5662608 125.282693,27.8833699 124.32907,27.8833699 Z M124.32907,21.3753056 L76.6709302,21.3753056 C75.717307,21.3753056 74.944186,22.0581966 74.944186,22.900978 C74.944186,23.7437594 75.717307,24.4266504 76.6709302,24.4266504 L124.32907,24.4266504 C125.282693,24.4266504 126.055814,23.7437594 126.055814,22.900978 C126.055814,22.0581966 125.282693,21.3753056 124.32907,21.3753056 Z M124.32907,14.2555012 L76.6709302,14.2555012 C75.717307,14.2555012 74.944186,14.9383922 74.944186,15.7811736 C74.944186,16.623955 75.717307,17.306846 76.6709302,17.306846 L124.32907,17.306846 C125.282693,17.306846 126.055814,16.623955 126.055814,15.7811736 C126.055814,14.9383922 125.282693,14.2555012 124.32907,14.2555012 Z" id="Shape" fill="#E1E6EA" fill-rule="nonzero"></path>
        </g>
    </g>
</svg>