<?xml version="1.0" encoding="UTF-8"?>
<svg width="22px" height="22px" viewBox="0 0 22 22" version="1.1" xmlns="http://www.w3.org/2000/svg" xmlns:xlink="http://www.w3.org/1999/xlink">
    <title>AWSM Calendar</title>
    <g id="AWSM-Calendar" stroke="none" stroke-width="1" fill="none" fill-rule="evenodd" opacity="0.900000036">
        <g id="TF-Icon---Calendar" transform="translate(3.000000, 3.000000)" fill="#D9D9D9">
            <path d="M5.33333333,7.2 L3.55555556,7.2 L3.55555556,8.8 L5.33333333,8.8 L5.33333333,7.2 L5.33333333,7.2 Z M8.88888889,7.2 L7.11111111,7.2 L7.11111111,8.8 L8.88888889,8.8 L8.88888889,7.2 L8.88888889,7.2 Z M12.4444444,7.2 L10.6666667,7.2 L10.6666667,8.8 L12.4444444,8.8 L12.4444444,7.2 L12.4444444,7.2 Z M13.3333333,1.6 L13.3333333,0 L11.5555556,0 L11.5555556,1.6 L4.44444444,1.6 L4.44444444,0 L2.66666667,0 L2.66666667,1.6 L1.77777778,1.6 C0.791111111,1.6 0.00888888889,2.32 0.00888888889,3.2 L0,14.4 C0,15.28 0.791111111,16 1.77777778,16 L14.2222222,16 C15.2,16 16,15.28 16,14.4 L16,3.2 C16,2.32 15.2,1.6 14.2222222,1.6 L13.3333333,1.6 Z M14.2222222,14.4 L1.77777778,14.4 L1.77777778,5.6 L14.2222222,5.6 L14.2222222,14.4 L14.2222222,14.4 Z" id="Shape"></path>
        </g>
    </g>
</svg>