<?xml version="1.0" encoding="UTF-8"?>
<svg width="11px" height="11px" viewBox="0 0 11 11" version="1.1" xmlns="http://www.w3.org/2000/svg" xmlns:xlink="http://www.w3.org/1999/xlink">
    <title>settings-3</title>
    <g id="Page-1" stroke="none" stroke-width="1" fill="none" fill-rule="evenodd">
        <g id="AWSM-Calendar" transform="translate(-5.000000, -6.000000)" fill="currentColor" fill-rule="nonzero" stroke-width="0.2">
            <g id="settings-3" transform="translate(11.000000, 11.000000) rotate(-90.000000) translate(-11.000000, -11.000000) translate(6.000000, 6.000000)">
                <path d="M9.06627864,7.30474871 L8.0165558,7.30474871 C7.84587953,6.73673319 7.32396526,6.31929047 6.70116408,6.31929047 C6.0783629,6.31929047 5.55683666,6.73673319 5.38577236,7.30474871 L0.394179601,7.30474871 C0.176589061,7.30474871 0,7.48135625 0,7.69894678 C0,7.91653732 0.176589061,8.09312639 0.394179601,8.09312639 L5.38575388,8.09312639 C5.55643016,8.66114191 6.07834442,9.07858463 6.7011456,9.07858463 C7.32394678,9.07858463 7.84547302,8.66114191 8.01653732,8.09312639 L9.06626016,8.09312639 C9.28423873,8.09312639 9.46043976,7.91653732 9.46043976,7.69894678 C9.46043976,7.48135625 9.28425721,7.30474871 9.06627864,7.30474871 Z M6.70116408,8.29022542 C6.3751663,8.29022542 6.10988544,8.02494457 6.10988544,7.69894678 C6.10988544,7.372949 6.3751663,7.10766814 6.70116408,7.10766814 C7.02716186,7.10766814 7.29244272,7.372949 7.29244272,7.69894678 C7.29244272,8.02494457 7.02714339,8.29022542 6.70116408,8.29022542 Z" id="Shape"></path>
                <path d="M9.06627864,0.997782705 L8.0165558,0.997782705 C7.84547302,0.429767184 7.32396526,0.0123244642 6.70116408,0.0123244642 C6.0783629,0.0123244642 5.55683666,0.429767184 5.38575388,0.997782705 L0.394179601,0.997782705 C0.176589061,0.997782705 0,1.17437177 0,1.39196231 C0,1.60955285 0.176589061,1.78614191 0.394179601,1.78614191 L5.38575388,1.78614191 C5.55683666,2.35417591 6.07834442,2.77161863 6.70116408,2.77161863 C7.32398374,2.77161863 7.8454915,2.35417591 8.0165558,1.78616038 L9.06627864,1.78616038 C9.28425721,1.78616038 9.46045824,1.60957132 9.46045824,1.39198078 C9.46045824,1.17439024 9.28425721,0.997782705 9.06627864,0.997782705 Z M6.70116408,1.98324095 C6.3751663,1.98324095 6.10988544,1.71796009 6.10988544,1.39196231 C6.10988544,1.06596452 6.3751663,0.800683666 6.70116408,0.800683666 C7.02716186,0.800683666 7.29244272,1.06596452 7.29244272,1.39196231 C7.29244272,1.71796009 7.02714339,1.98324095 6.70116408,1.98324095 Z" id="Shape"></path>
                <path d="M9.06627864,4.15127494 L4.07470436,4.15127494 C3.90362158,3.58325942 3.38211382,3.1658167 2.75931264,3.1658167 C2.13651146,3.1658167 1.61498522,3.58325942 1.44392092,4.15127494 L0.394179601,4.15127494 C0.176589061,4.15127494 0,4.32786401 0,4.54545455 C0,4.76304508 0.176589061,4.93963415 0.394179601,4.93963415 L1.44390244,4.93963415 C1.61498522,5.50764967 2.13649298,5.92509239 2.75929416,5.92509239 C3.38209534,5.92509239 3.90362158,5.50764967 4.07468588,4.93963415 L9.06626016,4.93963415 C9.28423873,4.93963415 9.46043976,4.76304508 9.46043976,4.54545455 C9.46043976,4.32786401 9.28425721,4.15127494 9.06627864,4.15127494 Z M2.75929416,5.13673319 C2.43329638,5.13673319 2.16801552,4.87145233 2.16801552,4.54545455 C2.16801552,4.21945676 2.43329638,3.95417591 2.75929416,3.95417591 C3.08529194,3.95417591 3.3505728,4.21945676 3.3505728,4.54545455 C3.3505728,4.87145233 3.08529194,5.13673319 2.75929416,5.13673319 Z" id="Shape"></path>
            </g>
        </g>
    </g>
</svg>
