<svg id="Group_3" xmlns="http://www.w3.org/2000/svg" width="15" height="15.997" viewBox="0 0 15 15.997">
  <path id="Path_3" d="M6.895,0H14.48A.52.52,0,0,1,15,.52V.539a.52.52,0,0,1-.52.52h-.006a.52.52,0,0,0-.52.52V14.416a.52.52,0,0,0,.52.52h0a.52.52,0,0,1,.52.52v.022a.52.52,0,0,1-.52.52H.523a.52.52,0,0,1-.52-.52v-.009a.52.52,0,0,1,.52-.52h0a.52.52,0,0,0,.52-.52V1.591a.52.52,0,0,0-.52-.52h0A.52.52,0,0,1,0,.552V.526A.52.52,0,0,1,.52.006H2.13m0,3.71v8.57a.52.52,0,0,0,.52.52h9.7a.52.52,0,0,0,.52-.52V3.716a.52.52,0,0,0-.52-.52h-9.7A.52.52,0,0,0,2.13,3.716Zm10.222-2.64H2.646a.52.52,0,0,0-.52.52h0a.52.52,0,0,0,.52.52h9.706a.52.52,0,0,0,.52-.52h0A.52.52,0,0,0,12.352,1.077ZM2.645,14.932h9.706a.52.52,0,0,0,.52-.52h0a.52.52,0,0,0-.52-.52H2.645a.52.52,0,0,0-.52.52h0A.52.52,0,0,0,2.645,14.932Z" fill="#00a19c"></path>
  <path id="Path_4" d="M96.614,87.53c.294.289.582.559.854.843a12.34,12.34,0,0,1,1.761,2.25,2.742,2.742,0,0,1,.009,3.017,2.97,2.97,0,0,1-2.76,1.487,3.07,3.07,0,0,1-2.938-3.178A3.011,3.011,0,0,1,94,90.608a12.337,12.337,0,0,1,1.948-2.439C96.161,87.956,96.381,87.754,96.614,87.53Zm0,1.715a9.231,9.231,0,0,0-1.741,2.382,1.224,1.224,0,0,0-.063.8A1.776,1.776,0,0,0,96.2,93.849a1.734,1.734,0,0,0,1.871-.673,1.583,1.583,0,0,0,.108-1.922A11.873,11.873,0,0,0,96.61,89.245Z" transform="translate(-89.111 -83.389)" fill="#00a19c"></path>
</svg>
