<?xml version="1.0" encoding="UTF-8"?>
<svg width="13px" height="14px" viewBox="0 0 13 14" version="1.1" xmlns="http://www.w3.org/2000/svg" xmlns:xlink="http://www.w3.org/1999/xlink">
    <title>Group 21</title>
    <defs>
        <path d="M2,0.921334173 L11,0.921334173 C12.1045695,0.921334173 13,1.81676467 13,2.92133417 L13,8.6029748 L13,8.6029748 L13,11.9213342 C13,13.0259037 12.1045695,13.9213342 11,13.9213342 L2,13.9213342 C0.8954305,13.9213342 1.3527075e-16,13.0259037 0,11.9213342 L0,2.92133417 C-1.3527075e-16,1.81676467 0.8954305,0.921334173 2,0.921334173 Z" id="path-1"></path>
    </defs>
    <g id="Symbols" stroke="none" stroke-width="1" fill="none" fill-rule="evenodd">
        <g id="Group-21">
            <g id="Group-3-Copy">
                <mask id="mask-2" fill="white">
                    
                </mask>
                
                <g id="Group-3" opacity="0.4" mask="url(#mask-2)" fill="#FFFFFF">
                    <g transform="translate(49.500000, 7.000000) rotate(-270.000000) translate(-49.500000, -7.000000) translate(20.000000, -185.000000)">
                        <polygon id="Rectangle-Copy-219" points="0 230 59 208.66748 59 210.66748 0 232"></polygon>
                        <polygon id="Rectangle-Copy-220" points="0 234 59 212.66748 59 214.66748 0 236"></polygon>
                        <polygon id="Rectangle-Copy-221" points="0 238 59 216.66748 59 218.66748 0 240"></polygon>
                        <polygon id="Rectangle-Copy-222" points="0 242 59 220.66748 59 222.66748 0 244"></polygon>
                        <polygon id="Rectangle-Copy-223" points="0 246 59 224.66748 59 226.66748 0 248"></polygon>
                        <polygon id="Rectangle-Copy-224" points="0 250 59 228.66748 59 230.66748 0 252"></polygon>
                        <polygon id="Rectangle-Copy-225" points="0 254 59 232.66748 59 234.66748 0 256"></polygon>
                        <polygon id="Rectangle-Copy-226" points="0 258 59 236.66748 59 238.66748 0 260"></polygon>
                        <polygon id="Rectangle-Copy-227" points="0 262 59 240.66748 59 242.66748 0 264"></polygon>
                    </g>
                </g>
            </g>
            <g id="Group-Copy-2" transform="translate(1.000000, 2.000000)">
                <path d="M5.6,0 L11.2,11.2 L0,11.2 L5.6,0 Z M6.3,8.4 L4.9,8.4 L4.9,9.8 L6.3,9.8 L6.3,8.4 Z M6.3,4.2 L4.9,4.2 L4.9,7.7 L6.3,7.7 L6.3,4.2 Z" id="Icon" fill="#FF151F"></path>
                <polygon id="Shape" fill="#D7D7D7" transform="translate(5.600000, 5.950000) rotate(-180.000000) translate(-5.600000, -5.950000) " points="6.3 7.7 4.9 7.7 4.9 4.2 6.3 4.2"></polygon>
                <polygon id="Shape" fill="#D7D7D7" transform="translate(5.600000, 9.100000) rotate(-180.000000) translate(-5.600000, -9.100000) " points="4.9 9.8 4.9 8.4 6.3 8.4 6.3 9.8"></polygon>
            </g>
        </g>
    </g>
</svg>