<?xml version="1.0" encoding="UTF-8"?>
<svg width="18px" height="19px" viewBox="0 0 18 19" version="1.1" xmlns="http://www.w3.org/2000/svg" xmlns:xlink="http://www.w3.org/1999/xlink">
    <title>Artboard</title>
    <g id="Artboard" stroke="none" stroke-width="1" fill="none" fill-rule="evenodd">
        <g id="web-browser-copy" transform="translate(2.000000, 3.000000)" fill="#999999" fill-rule="nonzero">
            <path d="M9.81333333,13.6533333 L1.56444444,13.6533333 C0.70144,13.6533333 0,12.9518933 0,12.0888889 L0,5.54666667 C0,4.68366222 0.70144,3.98222222 1.56444444,3.98222222 L9.81333333,3.98222222 C10.6763378,3.98222222 11.3777778,4.68366222 11.3777778,5.54666667 L11.3777778,12.0888889 C11.3777778,12.9518933 10.6763378,13.6533333 9.81333333,13.6533333 Z M1.56444444,4.83555556 C1.17248,4.83555556 0.853333333,5.15470222 0.853333333,5.54666667 L0.853333333,12.0888889 C0.853333333,12.4808533 1.17248,12.8 1.56444444,12.8 L9.81333333,12.8 C10.2052978,12.8 10.5244444,12.4808533 10.5244444,12.0888889 L10.5244444,5.54666667 C10.5244444,5.15470222 10.2052978,4.83555556 9.81333333,4.83555556 L1.56444444,4.83555556 Z" id="Shape"></path>
            <path d="M3.27,11.575 C4.395,11.575 5.115,10.905 5.115,9.78 C5.115,8.655 4.395,8 3.27,8 L2,8 L2,11.575 L3.27,11.575 Z M3.235,10.825 L2.875,10.825 L2.875,8.75 L3.235,8.75 C3.825,8.75 4.21,9.1 4.21,9.78 C4.21,10.465 3.84,10.825 3.235,10.825 Z M6.605,11.575 L6.605,9.91 C6.605,9.685 6.565,9.3 6.565,9.3 L6.575,9.3 C6.575,9.3 6.735,9.675 6.875,9.91 L7.87,11.575 L8.75,11.575 L8.75,8 L7.875,8 L7.875,9.67 C7.875,9.895 7.915,10.28 7.915,10.28 L7.905,10.28 C7.905,10.28 7.745,9.905 7.605,9.67 L6.615,8 L5.73,8 L5.73,11.575 L6.605,11.575 Z" id="DN"></path>
            <path d="M10.9511111,6.82666667 L0.426666667,6.82666667 C0.191146667,6.82666667 0,6.63552 0,6.4 C0,6.16448 0.191146667,5.97333333 0.426666667,5.97333333 L10.9511111,5.97333333 C11.1866311,5.97333333 11.3777778,6.16448 11.3777778,6.4 C11.3777778,6.63552 11.1866311,6.82666667 10.9511111,6.82666667 Z" id="Path"></path>
            <path d="M13.2266667,9.67111111 C12.9911467,9.67111111 12.8,9.47996444 12.8,9.24444444 L12.8,1.56444444 C12.8,1.17248 12.4808533,0.853333333 12.0888889,0.853333333 L3.84,0.853333333 C3.44803556,0.853333333 3.12888889,1.17248 3.12888889,1.56444444 L3.12888889,2.41777778 C3.12888889,2.65329778 2.93774222,2.84444444 2.70222222,2.84444444 C2.46670222,2.84444444 2.27555556,2.65329778 2.27555556,2.41777778 L2.27555556,1.56444444 C2.27555556,0.70144 2.97699556,0 3.84,0 L12.0888889,0 C12.9518933,0 13.6533333,0.70144 13.6533333,1.56444444 L13.6533333,9.24444444 C13.6533333,9.47996444 13.4621867,9.67111111 13.2266667,9.67111111 Z" id="Path"></path>
            <path d="M13.2266667,2.84444444 L2.70222222,2.84444444 C2.46670222,2.84444444 2.27555556,2.65329778 2.27555556,2.41777778 C2.27555556,2.18225778 2.46670222,1.99111111 2.70222222,1.99111111 L13.2266667,1.99111111 C13.4621867,1.99111111 13.6533333,2.18225778 13.6533333,2.41777778 C13.6533333,2.65329778 13.4621867,2.84444444 13.2266667,2.84444444 Z" id="Path"></path>
        </g>
    </g>
</svg>