<?xml version="1.0" encoding="UTF-8"?>
<svg width="50px" height="50px" viewBox="0 0 50 50" version="1.1" xmlns="http://www.w3.org/2000/svg" xmlns:xlink="http://www.w3.org/1999/xlink">
    <title>logo</title>
    <defs>
        <polygon id="path-1" points="0 50 50 50 50 0 0 0"></polygon>
    </defs>
    <g id="Page-1" stroke="none" stroke-width="1" fill="none" fill-rule="evenodd">
        <g id="logo">
            <mask id="mask-2" fill="white">
                <use xlink:href="#path-1"></use>
            </mask>
            <g id="Path"></g>
            <g id="Group" mask="url(#mask-2)">
                <g transform="translate(5.000000, 5.000000)" id="Shape">
                    <path d="M38.0601,37.0452 C37.3931,36.8955 37.2308,36.7999 37.2308,36.5832 L37.2308,36.5668 C37.2308,36.3946 37.387,36.2581 37.7079,36.2581 C38.0286,36.265 38.3437,36.343 38.6307,36.4865 C38.6307,36.4865 38.7001,36.5204 38.7296,36.5373 C38.83,36.5891 38.9448,36.6058 39.0558,36.5847 C39.1481,36.5648 39.2155,36.4804 39.2988,36.3808 L39.7136,35.7924 C39.153,35.3524 38.4544,35.1262 37.7427,35.1543 C36.5944,35.1543 35.888,35.799 35.888,36.6911 L35.888,36.7042 C35.888,37.6911 36.6776,37.978 37.6958,38.2137 C38.3453,38.3621 38.501,38.4727 38.501,38.6724 L38.501,38.6842 C38.501,38.8928 38.3113,39.0129 37.956,39.0129 C37.5345,39.012 37.1209,38.8979 36.7583,38.6826 C36.6366,38.6028 36.4898,38.5706 36.3459,38.5923 C36.2721,38.6145 36.2079,38.6609 36.1636,38.724 L35.663,39.3241 C36.2902,39.8532 37.0887,40.1351 37.9086,40.1167 C39.0716,40.1167 39.8438,39.5342 39.8438,38.5551 L39.8438,38.5417 C39.8438,37.6442 39.1584,37.2854 38.0601,37.0452 Z M31.7495,39.4282 L31.5082,40.0343 L30.1109,40.0343 L32.0444,35.4556 C32.0873,35.3332 32.1977,35.2472 32.3267,35.2359 L33.4143,35.2359 L35.4414,40.0343 L34.018,40.0343 L33.6821,39.2135 L31.9696,39.2135 C31.8654,39.2444 31.7831,39.3247 31.7495,39.4282 Z M33.3015,38.177 L32.7667,36.8125 L32.2237,38.177 L33.3015,38.177 Z M28.2021,35.544 L28.2021,37.7744 L26.2316,35.2353 L25.3328,35.2353 C25.1441,35.2363 24.9917,35.3898 24.9918998,35.5788 L24.9918998,40.0343 L26.3066,40.0343 L26.3066,37.404 L28.3548,40.034 L29.5147,40.034 L29.5147,35.2353 L28.5399,35.2353 C28.3625,35.2299 28.2129,35.3666 28.2021,35.544 Z M19.1211,37.6378 C19.1211,36.2585 20.2282,35.1411 21.7056,35.1411 C23.1832,35.1411 24.2825,36.2461 24.2825,37.6225 L24.2825,37.6378 C24.2825,39.0133 23.1721,40.1338 21.6934,40.1338 C20.2147,40.1338 19.1211,39.03 19.1211,37.648 L19.1211,37.6378 Z M21.7056,38.9309 C22.4422,38.9309 22.9249,38.34 22.9249,37.648 L22.9249,37.6378 C22.9384,37.3008 22.8151,36.9727 22.5831,36.7283 C22.3511,36.4839 22.0301,36.3438 21.6934,36.3402 C20.9692,36.3402 20.4813,36.93 20.4813,37.6225 L20.4813,37.6378 C20.4685,37.9729 20.5911,38.2991 20.8216,38.5425 C21.052,38.7858 21.3707,38.9259 21.7056,38.9309 Z M18.5844,36.927 L18.5844,36.9387 C18.6117,37.5708 18.2563,38.1573 17.6837,38.4249 L18.7882,40.0349 L17.2529,40.0349 L16.3286,38.663 L15.858,38.663 C15.7755,38.6724 15.7117,38.74 15.707,38.8231 L15.707,40.0349 L14.38,40.0349 L14.38,35.5486 C14.392,35.3706 14.5409,35.2331 14.719,35.2356637 L16.5937,35.2356637 C17.8033,35.2356637 18.5844,35.8608 18.5844,36.927 Z M16.4998,37.622 C16.9719,37.622 17.2587,37.3772 17.2587,36.9995 L17.2587,36.9856 C17.2587,36.5733 16.9719,36.3563 16.4916,36.3563 L15.9134,36.3563 C15.7997,36.3575 15.7079,36.4498 15.7072,36.5637 L15.7072,37.622 L16.4998,37.622 Z M9.5113,35.5654 L9.5113,36.4036 L10.9475,36.4036 L10.9475,40.0343 L12.2764,40.0343 L12.2764,36.5562 C12.2776,36.5137 12.296,36.4736 12.3274,36.445 C12.3587,36.4163 12.4004,36.4017 12.4427,36.4045 L13.714,36.4045 L13.714,35.2351 L9.8512,35.2351 C9.6685,35.238 9.5196,35.3827 9.5113,35.5654 Z M5.072,35.5679 L5.072,40.0352 L8.9255,40.0352 L8.9255,38.9017 L6.3857,38.9017 L6.3857,38.3246 C6.3873,38.2309 6.4581,38.153 6.5511,38.1427 L8.6261,38.1427 L8.6261,37.0951 L6.3857,37.0951 L6.3857,36.5496 C6.3854,36.459 6.4514,36.3819 6.5409,36.3683 L8.9255,36.3683 L8.9255,35.2357 L5.413,35.2357 C5.2284,35.2361 5.0775,35.3831 5.072,35.5679 Z M1.62823,39.5936 C1.62841,39.7604 1.62859,39.9207 1.62859,40.0348 L0.30176,40.0348 L0.30176,35.5491 C0.30176,35.2354 0.64602,35.2359 0.87263,35.2362 C0.8797,35.2362 0.88666,35.2362 0.89349,35.2362 L1.83446,35.2362 L2.51523,35.2362 C2.58848,35.2345 2.6685,35.2386 2.7447,35.2438 C3.31439,35.2828 3.90664,35.4924 4.23904,35.984 C4.39185,36.2174 4.48156,36.4865 4.49941,36.765 C4.53756,37.1398 4.45581,37.5171 4.26594,37.8424 C4.05799,38.1585 3.74898,38.3945 3.38955,38.5118 C3.05202,38.6222 2.69797,38.6734 2.34304,38.663 L1.83133,38.663 C1.80093,38.6603 1.7703,38.6627 1.74072,38.6703 C1.67657,38.6952 1.63277,38.7552 1.62859,38.824 C1.62741,38.8554 1.62784,39.2391 1.62823,39.5936 Z M2.42115,37.622 C2.89346,37.622 3.18021,37.3772 3.18021,36.9995 L3.18021,36.9856 C3.18021,36.5733 2.89346,36.3563 2.41317,36.3563 L1.83498,36.3563 C1.72116,36.3574 1.62925,36.4497 1.62859,36.5637 L1.62859,37.622 L2.42115,37.622 Z" fill="#FFFFFF"></path>
                    <path d="M27.5229,13.1719 L34.8677,0.43616 L23.5343,0.43616 C20.3741,0.51994 19.5463,1.14328 18.342,3.22815 C18.342,3.22815 11.0561,15.8684 11.0517,15.8756 C10.1137,17.4813 9.619,19.3079 9.61869859,21.1682 C9.6168,24.8438 11.542,28.2504 14.6894,30.1411 C16.3132,31.1196 18.173,31.6354 20.0681,31.632909 C22.8396,31.632909 25.4977,30.5308 27.4575,28.5683 C29.4173,26.6058 30.5184,23.944 30.5184,21.1686 C30.5209,19.2614 30.0004,17.3902 29.0138,15.7589 L27.5229,13.1719 Z M23.5924,3.11274 L30.2372,3.11274 L25.9809,10.4958 L24.5297,7.9788 L21.8322,3.2996 C22.2211,3.16645 22.749,3.11274 23.5924,3.11274 Z M20.0681,28.9669056 C18.232,28.9691 16.4546,28.3194 15.0517,27.1333 C13.2925,25.653 12.2778,23.4688 12.2804864,21.1677 C12.2779,19.7784 12.6474,18.4139 13.3506,17.2163 C13.3506,17.2163 20.041,5.6127 20.0658,5.5661 L22.6782,10.0886 L22.6804,10.0919 L26.7821,17.2123 C26.7821,17.2146 26.7837,17.2166 26.7842,17.2184 C27.4881,18.415 27.8584,19.7789 27.8562097,21.1677 C27.8562097,23.2362 27.0357,25.22 25.5752,26.6827 C24.1146,28.1453 22.1336,28.9669056 20.0681,28.9669056 Z M25.866,21.1682 C25.866,24.3747 23.2703,26.974 20.0684,26.974 C18.5308,26.974 17.0562,26.3623 15.969,25.2735 C14.8817,24.1847 14.2709,22.708 14.2709,21.1682 C14.2709,17.9618 16.8665,15.3624 20.0684,15.3624 C21.606,15.3624 23.0806,15.9741 24.1679,17.0629 C25.2551,18.1517 25.866,19.6284 25.866,21.1682 Z" fill="#00A19C"></path>
                </g>
            </g>
        </g>
    </g>
</svg>