<svg width="50" height="50" viewBox="0 0 50 50" fill="none" xmlns="http://www.w3.org/2000/svg">
<mask id="mask0" mask-type="alpha" maskUnits="userSpaceOnUse" x="0" y="0" width="50" height="50">
<path fill-rule="evenodd" clip-rule="evenodd" d="M0 50H50V0H0V50Z" fill="white"/>
</mask>
<g mask="url(#mask0)">
<path fill-rule="evenodd" clip-rule="evenodd" d="M43.0601 42.0452C42.3931 41.8955 42.2308 41.7999 42.2308 41.5832V41.5668C42.2308 41.3946 42.387 41.2581 42.7079 41.2581C43.0286 41.265 43.3437 41.343 43.6307 41.4865C43.6307 41.4865 43.7001 41.5204 43.7296 41.5373C43.83 41.5891 43.9448 41.6058 44.0558 41.5847C44.1481 41.5648 44.2155 41.4804 44.2988 41.3808L44.7136 40.7924C44.153 40.3524 43.4544 40.1262 42.7427 40.1543C41.5944 40.1543 40.888 40.799 40.888 41.6911V41.7042C40.888 42.6911 41.6776 42.978 42.6958 43.2137C43.3453 43.3621 43.501 43.4727 43.501 43.6724V43.6842C43.501 43.8928 43.3113 44.0129 42.956 44.0129C42.5345 44.012 42.1209 43.8979 41.7583 43.6826C41.6366 43.6028 41.4898 43.5706 41.3459 43.5923C41.2721 43.6145 41.2079 43.6609 41.1636 43.724L40.663 44.3241C41.2902 44.8532 42.0887 45.1351 42.9086 45.1167C44.0716 45.1167 44.8438 44.5342 44.8438 43.5551V43.5417C44.8438 42.6442 44.1584 42.2854 43.0601 42.0452ZM36.7495 44.4282L36.5082 45.0343H35.1109L37.0444 40.4556C37.0873 40.3332 37.1977 40.2472 37.3267 40.2359H38.4143L40.4414 45.0343H39.018L38.6821 44.2135H36.9696C36.8654 44.2444 36.7831 44.3247 36.7495 44.4282ZM38.3015 43.177L37.7667 41.8125L37.2237 43.177H38.3015ZM33.2021 40.544V42.7744L31.2316 40.2353H30.3328C30.1441 40.2363 29.9917 40.3898 29.9919 40.5788V45.0343H31.3066V42.404L33.3548 45.034H34.5147V40.2353H33.5399C33.3625 40.2299 33.2129 40.3666 33.2021 40.544ZM24.1211 42.6378C24.1211 41.2585 25.2282 40.1411 26.7056 40.1411C28.1832 40.1411 29.2825 41.2461 29.2825 42.6225V42.6378C29.2825 44.0133 28.1721 45.1338 26.6934 45.1338C25.2147 45.1338 24.1211 44.03 24.1211 42.648V42.6378ZM26.7056 43.9309C27.4422 43.9309 27.9249 43.34 27.9249 42.648V42.6378C27.9384 42.3008 27.8151 41.9727 27.5831 41.7283C27.3511 41.4839 27.0301 41.3438 26.6934 41.3402C25.9692 41.3402 25.4813 41.93 25.4813 42.6225V42.6378C25.4685 42.9729 25.5911 43.2991 25.8216 43.5425C26.052 43.7858 26.3707 43.9259 26.7056 43.9309ZM23.5844 41.927V41.9387C23.6117 42.5708 23.2563 43.1573 22.6837 43.4249L23.7882 45.0349H22.2529L21.3286 43.663H20.858C20.7755 43.6724 20.7117 43.74 20.707 43.8231V45.0349H19.38V40.5486C19.392 40.3706 19.5409 40.2331 19.719 40.2357H21.5937C22.8033 40.2357 23.5844 40.8608 23.5844 41.927ZM21.4998 42.622C21.9719 42.622 22.2587 42.3772 22.2587 41.9995V41.9856C22.2587 41.5733 21.9719 41.3563 21.4916 41.3563H20.9134C20.7997 41.3575 20.7079 41.4498 20.7072 41.5637V42.622H21.4998ZM14.5113 40.5654V41.4036H15.9475V45.0343H17.2764V41.5562C17.2776 41.5137 17.296 41.4736 17.3274 41.445C17.3587 41.4163 17.4004 41.4017 17.4427 41.4045H18.714V40.2351H14.8512C14.6685 40.238 14.5196 40.3827 14.5113 40.5654ZM10.072 40.5679V45.0352H13.9255V43.9017H11.3857V43.3246C11.3873 43.2309 11.4581 43.153 11.5511 43.1427H13.6261V42.0951H11.3857V41.5496C11.3854 41.459 11.4514 41.3819 11.5409 41.3683H13.9255V40.2357H10.413C10.2284 40.2361 10.0775 40.3831 10.072 40.5679ZM6.62823 44.5936C6.62841 44.7604 6.62859 44.9207 6.62859 45.0348H5.30176V40.5491C5.30176 40.2354 5.64602 40.2359 5.87263 40.2362C5.8797 40.2362 5.88666 40.2362 5.89349 40.2362H6.83446H7.51523C7.58848 40.2345 7.6685 40.2386 7.7447 40.2438C8.31439 40.2828 8.90664 40.4924 9.23904 40.984C9.39185 41.2174 9.48156 41.4865 9.49941 41.765C9.53756 42.1398 9.45581 42.5171 9.26594 42.8424C9.05799 43.1585 8.74898 43.3945 8.38955 43.5118C8.05202 43.6222 7.69797 43.6734 7.34304 43.663H6.83133C6.80093 43.6603 6.7703 43.6627 6.74072 43.6703C6.67657 43.6952 6.63277 43.7552 6.62859 43.824C6.62741 43.8554 6.62784 44.2391 6.62823 44.5936ZM7.42115 42.622C7.89346 42.622 8.18021 42.3772 8.18021 41.9995V41.9856C8.18021 41.5733 7.89346 41.3563 7.41317 41.3563H6.83498C6.72116 41.3574 6.62925 41.4497 6.62859 41.5637V42.622H7.42115Z" fill="#212121"/>
<path fill-rule="evenodd" clip-rule="evenodd" d="M32.5229 18.1719L39.8677 5.43616H28.5343C25.3741 5.51994 24.5463 6.14328 23.342 8.22815C23.342 8.22815 16.0561 20.8684 16.0517 20.8756C15.1137 22.4813 14.619 24.3079 14.6187 26.1682C14.6168 29.8438 16.542 33.2504 19.6894 35.1411C21.3132 36.1196 23.173 36.6354 25.0681 36.6329C27.8396 36.6332 30.4977 35.5308 32.4575 33.5683C34.4173 31.6058 35.5184 28.944 35.5184 26.1686C35.5209 24.2614 35.0004 22.3902 34.0138 20.7589L32.5229 18.1719ZM28.5924 8.11274H35.2372L30.9809 15.4958L29.5297 12.9788L26.8322 8.2996C27.2211 8.16645 27.749 8.11274 28.5924 8.11274ZM25.0681 33.9669C23.232 33.9691 21.4546 33.3194 20.0517 32.1333C18.2925 30.653 17.2778 28.4688 17.2805 26.1677C17.2779 24.7784 17.6474 23.4139 18.3506 22.2163C18.3506 22.2163 25.041 10.6127 25.0658 10.5661L27.6782 15.0886L27.6804 15.0919L31.7821 22.2123C31.7821 22.2146 31.7837 22.2166 31.7842 22.2184C32.4881 23.415 32.8584 24.7789 32.8562 26.1677C32.8562 28.2362 32.0357 30.22 30.5752 31.6827C29.1146 33.1453 27.1336 33.967 25.0681 33.9669ZM30.866 26.1682C30.866 29.3747 28.2703 31.974 25.0684 31.974C23.5308 31.974 22.0562 31.3623 20.969 30.2735C19.8817 29.1847 19.2709 27.708 19.2709 26.1682C19.2709 22.9618 21.8665 20.3624 25.0684 20.3624C26.606 20.3624 28.0806 20.9741 29.1679 22.0629C30.2551 23.1517 30.866 24.6284 30.866 26.1682Z" fill="#00A19C"/>
</g>
</svg>
